<?xml version="1.0" encoding="UTF-8" standalone="no" ?>
<!DOCTYPE svg PUBLIC "-//W3C//DTD SVG 1.1//EN" "http://www.w3.org/Graphics/SVG/1.1/DTD/svg11.dtd">
<svg xmlns="http://www.w3.org/2000/svg" xmlns:xlink="http://www.w3.org/1999/xlink" version="1.1" width="321.77093749999995" height="81.43199999999999" xml:space="preserve">
<desc>Created with Fabric.js 1.6.0-rc.1</desc>
<defs></defs>
  <g transform="translate(196.67 45.72)">
   <text font-family="Avondale Inline" font-size="40" font-weight="normal" style="stroke: none; stroke-width: 1; stroke-dasharray: none; stroke-linecap: butt; stroke-linejoin: miter; stroke-miterlimit: 10; fill: #f5f2f5; fill-rule: nonzero; opacity: 1;" ><tspan x="-115.61" y="8.98" style="stroke: none; stroke-width: 0; stroke-dasharray: none; stroke-linecap: butt; stroke-linejoin: miter; stroke-miterlimit: 4; fill: #f5f2f5; fill-rule: ; opacity: 1;">D</tspan><tspan x="-90.92" y="8.98" style="stroke: none; stroke-width: 0; stroke-dasharray: none; stroke-linecap: butt; stroke-linejoin: miter; stroke-miterlimit: 4; fill: #f5f2f5; fill-rule: ; opacity: 1;">o</tspan><tspan x="-67.11" y="8.98" style="stroke: none; stroke-width: 0; stroke-dasharray: none; stroke-linecap: butt; stroke-linejoin: miter; stroke-miterlimit: 4; fill: #f5f2f5; fill-rule: ; opacity: 1;">c</tspan><tspan x="-42.95" y="8.98" style="stroke: none; stroke-width: 0; stroke-dasharray: none; stroke-linecap: butt; stroke-linejoin: miter; stroke-miterlimit: 4; fill: #f5f2f5; fill-rule: ; opacity: 1;">t</tspan><tspan x="-19.86" y="8.98" style="stroke: none; stroke-width: 0; stroke-dasharray: none; stroke-linecap: butt; stroke-linejoin: miter; stroke-miterlimit: 4; fill: #f5f2f5; fill-rule: ; opacity: 1;">o</tspan><tspan x="3.95" y="8.98" style="stroke: none; stroke-width: 0; stroke-dasharray: none; stroke-linecap: butt; stroke-linejoin: miter; stroke-miterlimit: 4; fill: #f5f2f5; fill-rule: ; opacity: 1;">r</tspan><tspan x="27.75" y="8.98" style="stroke: none; stroke-width: 0; stroke-dasharray: none; stroke-linecap: butt; stroke-linejoin: miter; stroke-miterlimit: 4; fill: #f5f2f5; fill-rule: ; opacity: 1;">o</tspan><tspan x="51.56" y="8.98" style="stroke: none; stroke-width: 0; stroke-dasharray: none; stroke-linecap: butt; stroke-linejoin: miter; stroke-miterlimit: 4; fill: #f5f2f5; fill-rule: ; opacity: 1;">m</tspan><tspan x="91.8" y="8.98" style="stroke: none; stroke-width: 0; stroke-dasharray: none; stroke-linecap: butt; stroke-linejoin: miter; stroke-miterlimit: 4; fill: #f5f2f5; fill-rule: ; opacity: 1;">a</tspan></text>
 </g>
<g style="stroke: none; stroke-width: 1; stroke-dasharray: none; stroke-linecap: butt; stroke-linejoin: miter; stroke-miterlimit: 10; fill: none; fill-rule: nonzero; opacity: 1;" transform="translate(10 10.000000000000004) scale(0.16 0.16)" >
  <path d="M 354.204 196.999 c 8.246 -1.903 14.4 -9.276 14.4 -18.101 v -1.859 c 0 -10.269 -8.324 -18.593 -18.593 -18.593 h -50.666 c -10.269 0 -18.593 8.324 -18.593 18.593 v 1.859 c 0 8.824 6.154 16.197 14.4 18.101 H 25.056 v 36.706 h 350.521 v -36.706 H 354.204 z" style="stroke: none; stroke-width: 1; stroke-dasharray: none; stroke-linecap: butt; stroke-linejoin: miter; stroke-miterlimit: 10; fill: #F7F1E6; fill-rule: nonzero; opacity: 1;" transform=" matrix(1 0 0 1 0 0) " stroke-linecap="round" />
  <path d="M 387.224 58.13 H 232.955 c -6.433 0 -11.647 5.215 -11.647 11.646 c 0 0.084 0.011 0.165 0.013 0.248 c -0.004 0.083 -0.013 0.164 -0.013 0.248 v 44.298 h 11.156 V 81.399 c 0.164 0.007 0.325 0.024 0.491 0.024 h 142.622 v 115.576 v 36.706 H 25.056 v -36.706 V 128.27 c 0 -6.919 -5.609 -12.528 -12.528 -12.528 S 0 121.351 0 128.27 v 118.112 v 81.831 c 0 6.919 5.609 12.528 12.528 12.528 s 12.528 -5.609 12.528 -12.528 v -69.153 h 350.521 v 70.035 c 0 6.432 5.215 11.646 11.646 11.646 c 6.433 0 11.647 -5.215 11.647 -11.646 V 69.774 C 398.871 63.345 393.656 58.13 387.224 58.13 z" style="stroke: none; stroke-width: 1; stroke-dasharray: none; stroke-linecap: butt; stroke-linejoin: miter; stroke-miterlimit: 10; fill: #2B3237; fill-rule: nonzero; opacity: 1;" transform=" matrix(1 0 0 1 0 0) " stroke-linecap="round" />
  <path d="M 218.31 114.569 c -7.273 0 -13.17 5.897 -13.17 13.171 c 0 7.272 5.896 13.169 13.17 13.169 h 15.495 c 7.273 0 13.17 -5.896 13.17 -13.169 c 0 -7.273 -5.896 -13.171 -13.17 -13.171 h -1.342 h -11.156 H 218.31 z" style="stroke: none; stroke-width: 1; stroke-dasharray: none; stroke-linecap: butt; stroke-linejoin: miter; stroke-miterlimit: 10; fill: #E6A123; fill-rule: nonzero; opacity: 1;" transform=" matrix(1 0 0 1 0 0) " stroke-linecap="round" />
  <path d="M 97.125 120.424 h 17.889 v 17.89 c 0 6.225 5.047 11.271 11.271 11.271 h 1.027 h 6.508 c 6.226 0 11.269 -5.046 11.269 -11.271 v -17.89 h 17.891 c 6.224 0 11.268 -5.044 11.268 -11.267 v -7.539 c 0 -6.222 -5.044 -11.267 -11.268 -11.267 h -17.891 V 72.461 c 0 -6.224 -5.043 -11.269 -11.269 -11.269 h -6.508 h -1.027 c -6.224 0 -11.271 5.045 -11.271 11.269 v 17.889 H 97.125 c -6.221 0 -11.267 5.045 -11.267 11.267 v 7.539 C 85.858 115.38 90.904 120.424 97.125 120.424 z" style="stroke: none; stroke-width: 1; stroke-dasharray: none; stroke-linecap: butt; stroke-linejoin: miter; stroke-miterlimit: 10; fill: #D43D21; fill-rule: nonzero; opacity: 1;" transform=" matrix(1 0 0 1 0 0) " stroke-linecap="round" />
</g>
</svg>